<?xml version="1.0" encoding="UTF-8"?>
<svg width="128px" height="128px" viewBox="0 0 128 128" version="1.1" xmlns="http://www.w3.org/2000/svg" xmlns:xlink="http://www.w3.org/1999/xlink">
    <!-- Generator: Sketch 50.2 (55047) - http://www.bohemiancoding.com/sketch -->
    <title>Artboard</title>
    <desc>Created with Sketch.</desc>
    <defs></defs>
    <g id="Artboard" stroke="none" stroke-width="1" fill="none" fill-rule="evenodd">
        <path d="M127.553488,24.3534884 C122.865116,26.4372093 117.804651,27.8511628 112.52093,28.4465117 C117.953488,25.172093 122.046511,20.1116279 124.055814,13.9348837 C118.995348,16.9116279 113.413953,19.144186 107.460465,20.2604651 C102.697674,15.2 95.8511628,12 88.3348837,12 C73.8976744,12 62.1395349,23.7581396 62.1395349,38.1953489 C62.1395349,40.2790698 62.3627907,42.2139535 62.8093023,44.1488372 C41.0790698,43.0325582 21.7302326,32.6139535 8.85581396,16.7627907 C6.62325582,20.6325581 5.28372093,25.0976744 5.28372093,29.9348837 C5.28372093,39.0139535 9.89767442,47.0511628 16.9674419,51.7395349 C12.6511628,51.5906977 8.63255814,50.4 5.13488373,48.4651163 L5.13488373,48.7627907 C5.13488373,61.4139535 14.1395349,72.055814 26.1209302,74.4372093 C23.8883721,75.0325582 21.5813954,75.3302326 19.2,75.3302326 C17.4883721,75.3302326 15.8511628,75.1813954 14.2883721,74.883721 C17.6372093,85.3023256 27.3116279,92.8930233 38.772093,93.0418605 C29.8418605,100.037209 18.5302326,104.27907 6.2511628,104.27907 C4.16744187,104.27907 2.08372093,104.130233 0,103.906977 C11.6093023,111.348837 25.3767442,115.665116 40.1116279,115.665116 C88.2604651,115.665116 114.604651,75.7767442 114.604651,41.172093 C114.604651,40.055814 114.604651,38.9395349 114.530232,37.7488372 C119.590697,34.2511628 124.055814,29.6372093 127.553488,24.3534884 Z" id="st0" fill="#26AFF4" fill-rule="nonzero"></path>
    </g>
</svg>