<?xml version="1.0" encoding="UTF-8"?>
<svg width="128px" height="128px" viewBox="0 0 128 128" version="1.1" xmlns="http://www.w3.org/2000/svg" xmlns:xlink="http://www.w3.org/1999/xlink">
    <!-- Generator: Sketch 50.2 (55047) - http://www.bohemiancoding.com/sketch -->
    <title>logo-medium-footer</title>
    <desc>Created with Sketch.</desc>
    <defs></defs>
    <g id="logo-medium-footer" stroke="none" stroke-width="1" fill="none" fill-rule="evenodd">
        <path d="M15.178338,36.7677836 C15.3373682,35.3452352 14.738174,33.9392043 13.5648926,32.9817754 L1.61344537,19.9470899 L1.61344537,18 L38.7226891,18 L67.4061625,74.9523806 L92.6237166,18 L128,18 L128,19.9470899 L117.781513,28.8171664 C116.900567,29.4251153 116.463573,30.4243224 116.646125,31.4132863 L116.646125,96.586714 C116.463573,97.5756778 116.900567,98.5748845 117.781513,99.1828337 L127.760971,108.05291 L127.760971,110 L77.5648928,110 L77.5648928,108.05291 L87.9028949,98.9664904 C88.9187674,98.0470309 88.9187674,97.7766022 88.9187674,96.3703707 L88.9187674,43.6907702 L60.1755369,109.783657 L56.2913166,109.783657 L22.8272642,43.6907702 L22.8272642,87.9870662 C22.5482531,89.8494072 23.2314332,91.7243769 24.6797385,93.0711348 L38.1251167,107.836567 L38.1251167,109.783657 L0,109.783657 L0,107.836567 L13.4453781,93.0711348 C14.8831385,91.7221442 15.5264819,89.8347367 15.178338,87.9870662 L15.178338,36.7677836 Z" id="Shape" fill="#47525B" fill-rule="nonzero"></path>
    </g>
</svg>