<?xml version="1.0" encoding="UTF-8"?>
<svg width="128px" height="128px" viewBox="0 0 128 128" version="1.1" xmlns="http://www.w3.org/2000/svg" xmlns:xlink="http://www.w3.org/1999/xlink">
    <!-- Generator: Sketch 50.2 (55047) - http://www.bohemiancoding.com/sketch -->
    <title>logo-instagram-footer</title>
    <desc>Created with Sketch.</desc>
    <defs></defs>
    <g id="logo-instagram-footer" stroke="none" stroke-width="1" fill="none" fill-rule="evenodd">
        <path d="M37.6363636,0 C16.967246,0 0,16.962471 0,37.6363636 L0,90.3636364 C0,111.032756 16.962471,128 37.6363636,128 L90.3636364,128 C111.032756,128 128,111.037527 128,90.3636364 L128,37.6363636 C128,16.967246 111.037527,0 90.3636364,0 L37.6363636,0 Z M37.6363636,11.6363636 L90.3636364,11.6363636 C104.750109,11.6363636 116.363636,23.256754 116.363636,37.6363636 L116.363636,90.3636364 C116.363636,104.750109 104.743244,116.363636 90.3636364,116.363636 L37.6363636,116.363636 C23.2498927,116.363636 11.6363636,104.743244 11.6363636,90.3636364 L11.6363636,37.6363636 C11.6363636,23.2498927 23.256754,11.6363636 37.6363636,11.6363636 Z M98.3636364,24.3636364 C95.4427578,24.3636364 93.0909091,26.7154781 93.0909091,29.6363636 C93.0909091,32.5572422 95.4427578,34.9090909 98.3636364,34.9090909 C101.284521,34.9090909 103.636364,32.5572422 103.636364,29.6363636 C103.636364,26.7154781 101.284521,24.3636364 98.3636364,24.3636364 Z M64,29.0909091 C44.7891549,29.0909091 29.0909091,44.7891549 29.0909091,64 C29.0909091,83.2108451 44.7891549,98.9090909 64,98.9090909 C83.2108451,98.9090909 98.9090909,83.2108451 98.9090909,64 C98.9090909,44.7891549 83.2108451,29.0909091 64,29.0909091 Z M64,40.7272727 C76.9220887,40.7272727 87.2727273,51.0779113 87.2727273,64 C87.2727273,76.9220887 76.9220887,87.2727273 64,87.2727273 C51.0779113,87.2727273 40.7272727,76.9220887 40.7272727,64 C40.7272727,51.0779113 51.0779113,40.7272727 64,40.7272727 Z" id="Shape" fill="#47525B" fill-rule="nonzero"></path>
    </g>
</svg>